<svg id="Шар_1" data-name="Шар 1" xmlns="http://www.w3.org/2000/svg" viewBox="0 0 6661.13 501.14"><defs><style>.cls-1{fill:#61abeb;}.cls-2{fill:#c90187;}.cls-3{fill:#faf139;}.cls-4{fill:#272425;}</style></defs><path d="M3303.34,231.93V524.8H2924.62V231.93h77.82V459.12h73V231.93h77.82V459.12h72.24V231.93ZM3624.4,397.62q13,17.56,13,43.52,0,38.91-28.94,61.3t-82,22.38H3383.15V231.93h135.69q50.29,0,78,19.87t27.73,56.28q0,21.33-9.77,37.65t-28.13,25.94Q3611.43,380.07,3624.4,397.62ZM3461,349.08h50.28q33.51,0,33.53-28.87t-33.53-28.87H3461Zm96.59,85.77q0-29.72-34.31-29.71H3461v60.25h62.25q34.29,0,34.31-30.54ZM3700,231.93h77.82v172l115.33-172h74.23V524.8h-77.82V353.27L3774.65,524.82H3700V231.93Zm646.5,227.19V583.8h-72.24v-59H4095.5v59h-72.64V459.12h10q24.75-.4,34.92-35.57t12.57-101.25l3.19-90.38h225.07V459.11h37.93Zm-204.33-50.2q-5.58,32.64-17.16,50.2h105.75V297.62h-80.21l-1.2,31.79q-1.59,46.89-7.18,79.51Zm375.13,3.76H4481.4V524.82h-78.62V231.93h78.62v113.8h37.91L4586,231.93h83l-87.4,141.42,88.19,151.45h-89l-63.45-112.12Zm197.94-180.75h77.82v172l115.33-172h74.23V524.8h-77.82V353.27L4789.89,524.82h-74.63Zm347.19,0h77.82v172l115.33-172h74.23V524.8H5252V353.27L5137.08,524.82h-74.63Zm71.24-34.73q-19.75-17.14-19.76-51H5167q.39,14.64,7.19,21.76t21.55,7.11q14.76,0,21.95-7.11t7.59-21.76h53.07q0,33.89-20,51t-62.65,17.16q-42.32,0-62.06-17.16Zm712.15,261.92V583.8H5773.6v-59H5594.81v59h-72.64V459.12h10q24.75-.4,34.92-35.57t12.57-101.25l3.19-90.38H5807.9V459.11h37.94Zm-204.34-50.2q-5.58,32.64-17.16,50.2h105.75V297.62h-80.21l-1.2,31.79q-1.59,46.89-7.18,79.51Zm455.74-163.8q27.93,13.19,43.09,37.66t15.17,57.54q0,33-15.17,57.32t-43.09,37.44q-27.94,13.19-65.85,13.17H5982.7v76.57h-79V231.93h127.7q37.94,0,65.86,13.19Zm-33.92,126.77q12.38-11.07,12.37-31.59t-12.37-31.79q-12.37-11.31-36.72-11.3h-43.9V383h43.9Q6050.93,383,6063.32,371.89Zm407.06-140L6354.65,458.28q-18.36,36.41-44.89,55.23t-58.07,18.82q-23.16,0-49.48-10.87L6221,460.37q16.36,5,27.94,5a38.87,38.87,0,0,0,20.56-5.44q9-5.43,16.56-17.16L6177.48,231.91h83.41l65,141.42,67.44-141.42,77,0Zm158,180.75H6592.5V524.82h-78.62V231.93h78.62v113.8h37.91l66.65-113.8h83l-87.4,141.42,88.19,151.45h-89l-63.45-112.12Z" transform="translate(-119.73 -114.42)"/><circle class="cls-1" cx="250.56" cy="250.56" r="250.56"/><circle class="cls-2" cx="846.58" cy="250.56" r="250.56"/><circle class="cls-3" cx="1442.6" cy="250.56" r="250.56"/><circle class="cls-4" cx="2158.3" cy="365.01" r="250.55" transform="translate(254.32 1518.64) rotate(-45)"/></svg>